<?xml version="1.0" encoding="utf-8"?>
<!-- Generator: Adobe Illustrator 16.0.0, SVG Export Plug-In . SVG Version: 6.00 Build 0)  -->
<!DOCTYPE svg PUBLIC "-//W3C//DTD SVG 1.1//EN" "http://www.w3.org/Graphics/SVG/1.1/DTD/svg11.dtd">
<svg version="1.1" id="图层_1" xmlns="http://www.w3.org/2000/svg" xmlns:xlink="http://www.w3.org/1999/xlink" x="0px" y="0px"
	 width="64px" height="64px" viewBox="0 0 64 64" enable-background="new 0 0 64 64" xml:space="preserve">
<path fill="#FFFFFF" stroke="#8959AB" stroke-miterlimit="10" d="M59,37V27h-8c-0.48-1.902-1.27-3.363-2.257-5l5.721-5.721
	l-6.69-6.691l-5.717,5.715C40.411,14.312,38.916,13.672,37,13.2V5H27v8.2c-1.916,0.473-3.481,1.094-5.124,2.086l-5.672-5.673
	L9.5,16.317l5.664,5.664C14.168,23.636,13.578,25.069,13.1,27H5v10h8.1c0.481,1.922,1.075,3.583,2.08,5.236L9.617,47.8l6.699,6.698
	l5.58-5.58C23.547,49.911,25.083,50.527,27,51v8h10v-8c1.904-0.484,3.477-1.15,5.111-2.148l5.611,5.611l6.689-6.691l-5.635-5.633
	C49.759,40.497,50.529,38.904,51,37H59z M32.018,44C25.39,44.008,20.009,38.643,20,32.018C19.991,25.389,25.355,20.009,31.983,20
	C38.605,19.99,43.99,25.354,44,31.981C44.01,38.604,38.645,43.988,32.018,44z"/>
</svg>
